<svg width="650" height="650" xmlns="http://www.w3.org/2000/svg">
  <g>
    <ellipse stroke="null" ry="54.5" rx="55.5" cy="320.938" cx="580" stroke-width="1.5" fill="#CFCA6D"/>
    <ellipse cy="114.438" cx="385.5" stroke-width="1.5" stroke="#000" fill="#fff"/>
    <ellipse ry="54.5" rx="55.5" cy="510.938" cx="491" fill="#C97A86"/>
    <ellipse ry="54.5" rx="55.5" cy="573.938" cx="331" fill="#CC7C65"/>
    <ellipse ry="54.5" rx="55.5" cy="502.938" cx="146" fill="#845335"/>
    <ellipse ry="54.5" rx="55.5" cy="133.938" cx="154" fill="#FFFA8D"/>
    <ellipse ry="54.5" rx="55.5" cy="63.938" cx="329" fill="#97944B"/>
    <ellipse ry="54.5" rx="55.5" cy="146.938" cx="516" fill="#559E84"/>
    <ellipse ry="54.5" rx="55.5" cy="319.938" cx="67" fill="#AF84A3"/>
    <path d="M293.5 238s35 9 34.5 9c.5 0 35.5-8 35.5-8s16 29 15.5 29c.5 0 32.5 16 32.5 16s-12 38-12.5 38c.5 0 13.5 29 13.5 29s-37 19-37.5 19c.5 0-10.5 32-10.5 32s-38-14-38.5-14c.5 0-29.5 18-30 18 .5 0-23.5-36-24-36 .5 0-27.5-13-28-13 .5 0 12.5-33 12-33 .5 0-11.5-41-11.5-41l37-10 12-35z" stroke-opacity="null" stroke-width="1.5" stroke="#000"/>
    <path stroke-linecap="null" stroke-linejoin="null" stroke-opacity="null" stroke-width="1.5" stroke="#000" fill="none" d="M401.159 322.558l112.682 1.884M378.247 377.36l72.506 86.28M327.458 387.15l.084 112.7M273.315 371.625l-79.63 79.75M141.16 326.525l112.68-2.05M465.005 191.326l-81.01 78.348M326.354 133.15l.292 112.7M206.5 187l74 85"/>
    <text font-family="Helvetica, Arial, sans-serif" font-size="24" y="69" x="300.5" fill-opacity="null" stroke-opacity="null" stroke-width="0" stroke="#000">
      Noun
    </text>
    <text stroke="#000" transform="matrix(.88074 0 0 1 25.986 0)" font-family="Helvetica, Arial, sans-serif" font-size="24" y="143" x="85.74" fill-opacity="null" stroke-opacity="null" stroke-width="0">
      Interjection
    </text>
    <text font-family="Helvetica, Arial, sans-serif" font-size="24" y="151" x="472.5" fill-opacity="null" stroke-opacity="null" stroke-width="0" stroke="#000">
      Pronoun
    </text>
    <text stroke="#000" transform="matrix(.8251 0 0 1 3.236 0)" font-family="Helvetica, Arial, sans-serif" font-size="24" y="329" x="18.5" fill-opacity="null" stroke-opacity="null" stroke-width="0">
      Preposition
    </text>
    <text font-family="Helvetica, Arial, sans-serif" font-size="24" y="326" x="556.5" fill-opacity="null" stroke-opacity="null" stroke-width="0" stroke="#000">
      Verb
    </text>
    <text font-family="Helvetica, Arial, sans-serif" font-size="24" y="514" x="452.5" fill-opacity="null" stroke-opacity="null" stroke-width="0" stroke="#000">
      Adverb
    </text>
    <text font-family="Helvetica, Arial, sans-serif" font-size="24" y="581" x="282.5" fill-opacity="null" stroke-opacity="null" stroke-width="0" stroke="#000" cursor="move">
      Adjective
    </text>
    <text stroke="#000" transform="matrix(.85008 0 0 1 14.018 0)" font-family="Helvetica, Arial, sans-serif" font-size="24" y="511" x="93.5" fill-opacity="null" stroke-opacity="null" stroke-width="0">
      Conjuction
    </text>
    <text stroke="#000" transform="matrix(.71306 0 0 1 84.218 0)" font-family="Helvetica, Arial, sans-serif" font-size="24" y="324" x="259.842" fill-opacity="null" stroke-opacity="null" stroke-width="0" fill="#fff">
      Parts of Speech
    </text>
  </g>
</svg>
